<mxfile host="app.diagrams.net" agent="Mozilla/5.0 (Windows NT 10.0; Win64; x64) AppleWebKit/537.36 (KHTML, like Gecko) Chrome/131.0.0.0 Safari/537.36" version="24.9.3">
  <diagram name="Контекстная диаграмма" id="O71XSEDOt5aFNsoPLeiK">
    <mxGraphModel dx="1183" dy="632" grid="0" gridSize="10" guides="1" tooltips="1" connect="1" arrows="1" fold="1" page="0" pageScale="1" pageWidth="850" pageHeight="1100" math="0" shadow="0">
      <root>
        <mxCell id="0" />
        <mxCell id="1" parent="0" />
        <mxCell id="2bMup0ePeQYrDYNLiMuA-1" value="Пользователи&amp;nbsp;" style="rounded=1;whiteSpace=wrap;html=1;fillColor=#dae8fc;strokeColor=#6c8ebf;fontSize=14;fontStyle=1;" vertex="1" parent="1">
          <mxGeometry x="41" y="300" width="200" height="85" as="geometry" />
        </mxCell>
        <mxCell id="2bMup0ePeQYrDYNLiMuA-19" style="edgeStyle=orthogonalEdgeStyle;rounded=1;orthogonalLoop=1;jettySize=auto;html=1;exitX=0;exitY=0.75;exitDx=0;exitDy=0;entryX=1;entryY=0.75;entryDx=0;entryDy=0;strokeWidth=2;curved=0;endArrow=block;endFill=1;" edge="1" parent="1" source="2bMup0ePeQYrDYNLiMuA-2" target="2bMup0ePeQYrDYNLiMuA-1">
          <mxGeometry relative="1" as="geometry" />
        </mxCell>
        <mxCell id="2bMup0ePeQYrDYNLiMuA-2" value="Система P2P-переводов" style="rounded=1;whiteSpace=wrap;html=1;fillColor=#d5e8d4;strokeColor=#82b366;fontSize=14;fontStyle=1;" vertex="1" parent="1">
          <mxGeometry x="335" y="300" width="260" height="85" as="geometry" />
        </mxCell>
        <mxCell id="2bMup0ePeQYrDYNLiMuA-4" value="Платёжные шлюзы / Банки" style="rounded=1;whiteSpace=wrap;html=1;fillColor=#ffe6cc;strokeColor=#d79b00;fontSize=14;fontStyle=1;" vertex="1" parent="1">
          <mxGeometry x="689" y="175" width="200" height="85" as="geometry" />
        </mxCell>
        <mxCell id="2bMup0ePeQYrDYNLiMuA-5" value="Система Антифрода" style="rounded=1;whiteSpace=wrap;html=1;fillColor=#f8cecc;strokeColor=#b85450;fontSize=14;fontStyle=1;" vertex="1" parent="1">
          <mxGeometry x="689" y="300" width="200" height="85" as="geometry" />
        </mxCell>
        <mxCell id="2bMup0ePeQYrDYNLiMuA-6" value="Сервис уведомлений" style="rounded=1;whiteSpace=wrap;html=1;fillColor=#e1d5e7;strokeColor=#9673a6;fontSize=14;fontStyle=1;" vertex="1" parent="1">
          <mxGeometry x="689" y="425" width="200" height="85" as="geometry" />
        </mxCell>
        <mxCell id="2bMup0ePeQYrDYNLiMuA-7" style="endArrow=block;endFill=1;strokeWidth=2;exitX=1;exitY=0.25;exitDx=0;exitDy=0;entryX=0;entryY=0.25;entryDx=0;entryDy=0;edgeStyle=orthogonalEdgeStyle;" edge="1" parent="1" source="2bMup0ePeQYrDYNLiMuA-1" target="2bMup0ePeQYrDYNLiMuA-2">
          <mxGeometry relative="1" as="geometry" />
        </mxCell>
        <mxCell id="2bMup0ePeQYrDYNLiMuA-9" style="endArrow=block;endFill=1;strokeWidth=2;startArrow=block;startFill=1;exitX=1;exitY=0.25;exitDx=0;exitDy=0;entryX=0;entryY=0.5;entryDx=0;entryDy=0;edgeStyle=orthogonalEdgeStyle;" edge="1" parent="1" source="2bMup0ePeQYrDYNLiMuA-2" target="2bMup0ePeQYrDYNLiMuA-4">
          <mxGeometry relative="1" as="geometry">
            <mxPoint x="900" y="220" as="targetPoint" />
          </mxGeometry>
        </mxCell>
        <mxCell id="2bMup0ePeQYrDYNLiMuA-11" style="endArrow=block;endFill=1;strokeWidth=2;startArrow=block;startFill=1;" edge="1" parent="1" source="2bMup0ePeQYrDYNLiMuA-2" target="2bMup0ePeQYrDYNLiMuA-5">
          <mxGeometry relative="1" as="geometry">
            <mxPoint x="900" y="340" as="targetPoint" />
          </mxGeometry>
        </mxCell>
        <mxCell id="2bMup0ePeQYrDYNLiMuA-13" style="endArrow=block;endFill=1;strokeWidth=2;exitX=1;exitY=0.75;exitDx=0;exitDy=0;entryX=0;entryY=0.5;entryDx=0;entryDy=0;edgeStyle=orthogonalEdgeStyle;" edge="1" parent="1" source="2bMup0ePeQYrDYNLiMuA-2" target="2bMup0ePeQYrDYNLiMuA-6">
          <mxGeometry relative="1" as="geometry">
            <mxPoint x="610" y="460" as="targetPoint" />
          </mxGeometry>
        </mxCell>
      </root>
    </mxGraphModel>
  </diagram>
</mxfile>
